<svg height="512" viewBox="0 0 64 64" width="512" xmlns="http://www.w3.org/2000/svg"><g id="Edit_code" data-name="Edit code"><path d="m7 9h44a0 0 0 0 1 0 0v46a2 2 0 0 1 -2 2h-40a2 2 0 0 1 -2-2v-46a0 0 0 0 1 0 0z" fill="#ffeb99"/><path d="m7 26v29a2 2 0 0 0 2 2h29a30.982 30.982 0 0 1 -31-31z" fill="#ffde55"/><path d="m49 3h-40a2.006 2.006 0 0 0 -2 2v4h44v-4a2.006 2.006 0 0 0 -2-2z" fill="#004fac"/><path d="m11 47v3h20l-3-3z" fill="#d80027"/><path d="m28 47 3-3h-20v3z" fill="#ff9811"/><path d="m28 47 3 3 6-3-6-3z" fill="#d1d3d4"/><path d="m11 44h-4v6h4v-3z" fill="#006df0"/><path d="m6 44a3 3 0 0 0 0 6h1v-6z" fill="#f1f2f2"/><circle cx="50" cy="50" fill="#ff9811" r="11"/><path d="m37 58h-28a3 3 0 0 1 -3-3v-2a1 1 0 0 1 2 0v2a1 1 0 0 0 1 1h28a1 1 0 0 1 0 2z"/><path d="m37.447 46.105-6-3a1 1 0 0 0 -.447-.105h-25a4 4 0 0 0 0 8h25a1 1 0 0 0 .447-.1l6-3a1 1 0 0 0 0-1.79zm-31.447 2.895a2 2 0 0 1 0-4zm6-4h16.586l-1 1h-15.586zm-2 4h-2v-4h2zm2-1h15.586l1 1h-16.586zm19.2.783-1.786-1.783 1.786-1.783 3.564 1.783z"/><path d="m50 62a12 12 0 1 1 12-12 12.013 12.013 0 0 1 -12 12zm0-22a10 10 0 1 0 10 10 10.011 10.011 0 0 0 -10-10z"/><path d="m46 54a1 1 0 0 1 -.707-.293l-3-3a1 1 0 0 1 0-1.414l3-3a1 1 0 0 1 1.414 1.414l-2.293 2.293 2.293 2.293a1 1 0 0 1 -.707 1.707z"/><path d="m54 54a1 1 0 0 1 -.707-1.707l2.293-2.293-2.293-2.293a1 1 0 0 1 1.414-1.414l3 3a1 1 0 0 1 0 1.414l-3 3a1 1 0 0 1 -.707.293z"/><path d="m49 56a.948.948 0 0 1 -.2-.02 1 1 0 0 1 -.78-1.18l2-10a1 1 0 1 1 1.96.392l-2 10a1 1 0 0 1 -.98.808z"/><path d="m10 5h2v2h-2z"/><path d="m14 5h2v2h-2z"/><path d="m18 5h2v2h-2z"/><path d="m49 2h-40a3 3 0 0 0 -3 3v36a1 1 0 0 0 2 0v-31h42v25a1 1 0 0 0 2 0v-30a3 3 0 0 0 -3-3zm-41 6v-3a1 1 0 0 1 1-1h40a1 1 0 0 1 1 1v3z"/><path d="m13 14a1 1 0 0 0 -1 1v24a1 1 0 0 0 2 0v-24a1 1 0 0 0 -1-1z"/><path d="m20 19a1 1 0 0 0 .556-1.832l-1.756-1.168 1.752-1.168a1 1 0 1 0 -1.11-1.664l-3 2a1 1 0 0 0 0 1.664l3 2a1 1 0 0 0 .558.168z"/><path d="m27.168 18.555a1 1 0 0 0 1.387.277l3-2a1 1 0 0 0 0-1.664l-3-2a1 1 0 0 0 -1.11 1.664l1.755 1.168-1.752 1.168a1 1 0 0 0 -.28 1.387z"/><path d="m25.316 12.051a1 1 0 0 0 -1.265.633l-2 6a1 1 0 0 0 1.9.632l2-6a1 1 0 0 0 -.635-1.265z"/><path d="m17 21h6v2h-6z"/><path d="m25 21h2v2h-2z"/><path d="m21 25h12v2h-12z"/><path d="m39 25h9v2h-9z"/><path d="m21 29h2v2h-2z"/><path d="m25 29h12v2h-12z"/><path d="m39 29h4v2h-4z"/><path d="m17 33h6v2h-6z"/><path d="m25 33h2v2h-2z"/><path d="m35 25h2v2h-2z"/><path d="m21 37h2v2h-2z"/><path d="m25 37h12v2h-12z"/><path d="m39 37h4v2h-4z"/></g></svg>