<?xml version="1.0" encoding="iso-8859-1"?>
<!-- Generator: Adobe Illustrator 19.0.0, SVG Export Plug-In . SVG Version: 6.00 Build 0)  -->
<svg version="1.1" id="Capa_1" xmlns="http://www.w3.org/2000/svg" xmlns:xlink="http://www.w3.org/1999/xlink" x="0px" y="0px"
	 viewBox="0 0 383.996 383.996" style="enable-background:new 0 0 383.996 383.996;" xml:space="preserve">
<polygon style="fill:#FF8A65;" points="111.994,55.998 191.994,151.998 15.994,151.998 "/>
<polygon style="fill:#4DD0E1;" points="367.994,151.998 191.994,327.998 191.994,151.998 "/>
<g>
	<polygon style="fill:#E0F7FA;" points="367.994,151.998 191.994,151.998 271.994,55.998 	"/>
	<polygon style="fill:#E0F7FA;" points="271.994,55.998 191.994,151.998 111.994,55.998 	"/>
</g>
<polygon style="fill:#FF7043;" points="191.994,151.998 191.994,327.998 15.994,151.998 "/>
<path style="fill:#012E52;" d="M383.682,148.862c-0.096-0.472-0.272-0.912-0.408-1.368c-0.16-0.544-0.288-1.088-0.504-1.616
	c-0.224-0.536-0.528-1.024-0.808-1.536c-0.224-0.408-0.4-0.832-0.664-1.224c-0.592-0.88-1.256-1.704-2.008-2.448l-95.976-95.984
	c-0.168-0.168-0.376-0.296-0.56-0.456c-0.184-0.168-0.32-0.36-0.512-0.52c-0.224-0.184-0.48-0.304-0.712-0.48
	c-0.432-0.32-0.872-0.624-1.328-0.896c-0.464-0.28-0.936-0.528-1.424-0.76c-0.448-0.208-0.904-0.4-1.368-0.568
	c-0.52-0.192-1.048-0.352-1.584-0.48c-0.472-0.12-0.944-0.208-1.424-0.288c-0.544-0.08-1.088-0.136-1.632-0.16
	c-0.256-0.016-0.504-0.08-0.768-0.08h-160c-0.248,0-0.488,0.064-0.736,0.072c-0.576,0.024-1.144,0.08-1.72,0.168
	c-0.456,0.072-0.904,0.16-1.344,0.272c-0.56,0.136-1.104,0.304-1.648,0.504c-0.448,0.16-0.88,0.344-1.312,0.544
	c-0.496,0.232-0.984,0.488-1.456,0.776c-0.456,0.272-0.88,0.568-1.312,0.888c-0.232,0.176-0.488,0.296-0.712,0.48
	c-0.192,0.16-0.328,0.36-0.512,0.52c-0.176,0.16-0.384,0.288-0.56,0.456l-95.992,96c-0.744,0.744-1.416,1.568-2.008,2.448
	c-0.264,0.392-0.44,0.816-0.664,1.224c-0.28,0.504-0.584,0.992-0.808,1.536c-0.216,0.528-0.344,1.072-0.504,1.616
	c-0.136,0.456-0.312,0.896-0.408,1.368c-0.408,2.072-0.408,4.2,0,6.264c0.096,0.472,0.272,0.912,0.408,1.368
	c0.16,0.544,0.288,1.088,0.504,1.616c0.224,0.536,0.528,1.024,0.808,1.536c0.224,0.408,0.4,0.832,0.664,1.224
	c0.592,0.88,1.256,1.704,2.008,2.448l175.976,175.976c0.744,0.752,1.568,1.416,2.456,2.008c0.384,0.256,0.792,0.424,1.184,0.648
	c0.52,0.288,1.016,0.6,1.568,0.824c0.52,0.216,1.064,0.336,1.6,0.496c0.464,0.136,0.904,0.312,1.384,0.408
	c1.04,0.2,2.088,0.312,3.136,0.312c1.048,0,2.096-0.112,3.136-0.312c0.48-0.096,0.92-0.272,1.384-0.408
	c0.536-0.16,1.08-0.28,1.6-0.496c0.552-0.224,1.048-0.536,1.568-0.824c0.392-0.216,0.808-0.392,1.184-0.648
	c0.88-0.592,1.704-1.256,2.456-2.008l175.976-175.976c0.744-0.744,1.416-1.568,2.008-2.448c0.264-0.392,0.44-0.816,0.664-1.224
	c0.28-0.504,0.584-0.992,0.808-1.536c0.216-0.528,0.344-1.072,0.504-1.616c0.136-0.456,0.312-0.896,0.408-1.368
	C384.098,153.062,384.098,150.934,383.682,148.862z M110.93,79.694l46.912,56.304H54.626L110.93,79.694z M176.002,289.366
	L54.626,167.998h121.376V289.366z M192.002,127.006l-45.84-55.008h91.68L192.002,127.006z M208.002,289.366V167.998h121.376
	L208.002,289.366z M226.162,135.998l46.92-56.304l56.296,56.304H226.162z"/>
<g>
</g>
<g>
</g>
<g>
</g>
<g>
</g>
<g>
</g>
<g>
</g>
<g>
</g>
<g>
</g>
<g>
</g>
<g>
</g>
<g>
</g>
<g>
</g>
<g>
</g>
<g>
</g>
<g>
</g>
</svg>
