<?xml version="1.0" encoding="iso-8859-1"?>
<!-- Generator: Adobe Illustrator 19.0.0, SVG Export Plug-In . SVG Version: 6.00 Build 0)  -->
<svg version="1.1" id="Capa_1" xmlns="http://www.w3.org/2000/svg" xmlns:xlink="http://www.w3.org/1999/xlink" x="0px" y="0px"
	 viewBox="0 0 512 512" style="enable-background:new 0 0 512 512;" xml:space="preserve">
<path style="fill:#8596CA;" d="M483.31,512H28.69C12.844,512,0,499.156,0,483.31V105.931h512V483.31
	C512,499.156,499.156,512,483.31,512z"/>
<rect x="35.31" y="141.241" style="fill:#FFFFFF;" width="441.379" height="335.448"/>
<path style="fill:#687492;" d="M512,105.931H0V28.69C0,12.844,12.844,0,28.69,0H483.31C499.156,0,512,12.844,512,28.69V105.931z"/>
<rect x="35.31" y="35.31" style="fill:#E64C3C;" width="35.31" height="35.31"/>
<rect x="105.931" y="35.31" style="fill:#F0C419;" width="35.31" height="35.31"/>
<rect x="176.552" y="35.31" style="fill:#24AE5F;" width="35.31" height="35.31"/>
<g>
	<path style="fill:#BDC3C7;" d="M344.276,406.069H167.724c-4.873,0-8.828-3.946-8.828-8.828c0-4.882,3.955-8.828,8.828-8.828
		h176.552c4.873,0,8.828,3.946,8.828,8.828C353.103,402.123,349.149,406.069,344.276,406.069z"/>
	<path style="fill:#BDC3C7;" d="M388.414,441.379H123.586c-4.873,0-8.828-3.946-8.828-8.828c0-4.882,3.955-8.828,8.828-8.828
		h264.828c4.873,0,8.828,3.946,8.828,8.828C397.241,437.433,393.287,441.379,388.414,441.379z"/>
</g>
<circle style="fill:#26B99A;" cx="256" cy="273.655" r="88.276"/>
<path style="fill:#FFFFFF;" d="M288,240.278c-3.805-3.046-9.366-2.41-12.412,1.377l-29.149,36.44l-10.681-10.681
	c-3.443-3.452-9.039-3.452-12.482,0c-3.452,3.452-3.452,9.031,0,12.482l17.655,17.655c0.115,0.115,0.274,0.159,0.397,0.265
	c0.132,0.115,0.185,0.274,0.327,0.388c0.468,0.371,1.006,0.574,1.518,0.839c0.3,0.159,0.574,0.371,0.892,0.486
	c1.006,0.38,2.048,0.609,3.098,0.609l0,0l0,0c1.209,0,2.41-0.291,3.54-0.794c0.371-0.159,0.662-0.459,1.006-0.671
	c0.574-0.353,1.192-0.627,1.695-1.13c0.132-0.132,0.177-0.309,0.291-0.441c0.106-0.115,0.256-0.159,0.362-0.283l35.31-44.138
	C292.423,248.876,291.805,243.324,288,240.278z"/>
<g>
</g>
<g>
</g>
<g>
</g>
<g>
</g>
<g>
</g>
<g>
</g>
<g>
</g>
<g>
</g>
<g>
</g>
<g>
</g>
<g>
</g>
<g>
</g>
<g>
</g>
<g>
</g>
<g>
</g>
</svg>
