<?xml version="1.0"?>
<svg xmlns="http://www.w3.org/2000/svg" id="Capa_1" enable-background="new 0 0 512 512" height="512" viewBox="0 0 512 512" width="512" class=""><g><g><path d="m397.054 302.39c3.884-1.361 8.164.709 9.524 4.62 1.36 3.884-.708 8.164-4.62 9.524l-123.28 43.087 123.28 43.115c3.912 1.361 5.98 5.613 4.62 9.525-1.36 3.883-5.641 5.953-9.524 4.592l-141.054-49.294-141.025 49.295c-3.912 1.36-8.165-.709-9.525-4.592-1.361-3.912.68-8.164 4.592-9.525l123.308-43.115-123.308-43.087c-3.912-1.36-5.953-5.641-4.592-9.524 1.36-3.912 5.613-5.981 9.525-4.62l141.025 49.322z" fill="#365e7d" data-original="#365E7D" class="active-path" data-old_color="#365e7d" style="fill:#1A3246"/><g clip-rule="evenodd" fill-rule="evenodd"><path d="m64.007 142.882h50.514v313.261c0 2.749-2.24 4.989-4.989 4.989h-40.535c-2.749 0-4.989-2.24-4.989-4.989-.001-102.758-.001-210.504-.001-313.261zm384.014 313.261c0 2.749-2.268 4.989-5.017 4.989h-40.508c-2.749 0-5.017-2.24-5.017-4.989 0-102.757 0-210.503 0-313.261h50.541c.001 102.757.001 210.503.001 313.261z" fill="#ddeafb" data-original="#DDEAFB" class="" style="fill:#DDEAFB"/><path d="m84.53 147.871h29.991v308.272c0 2.749-2.24 4.989-4.989 4.989h-30.02c2.75 0 5.017-2.24 5.017-4.989.001-102.758.001-205.515.001-308.272zm363.491 308.272c0 2.749-2.268 4.989-5.017 4.989h-29.991c2.75 0 4.989-2.24 4.989-4.989 0-102.757 0-205.514 0-308.272h30.018c.001 102.757.001 205.514.001 308.272z" fill="#cbe2ff" data-original="#CBE2FF" class="" data-old_color="#cbe2ff" style="fill:#101112"/><path d="m14.003 50.868h483.993c7.711 0 14.004 6.293 14.004 14.004v68.996c0 7.71-6.293 14.003-14.004 14.003h-55.984l-25.994-2.381-18.538 2.381h-296.877l-43.654-2.239-42.945 2.239c-7.711 0-14.004-6.293-14.004-14.003v-68.996c0-7.711 6.293-14.004 14.003-14.004z" fill="#ffe17d" data-original="#FFE17D" class="" data-old_color="#ffe17d" style="fill:#DBAC0E"/><path d="m468.005 50.868h29.991c7.711 0 14.004 6.293 14.004 14.004v68.996c0 7.71-6.293 14.003-14.004 14.003h-29.991c7.712 0 14.005-6.293 14.005-14.003v-68.996c0-7.711-6.293-14.004-14.005-14.004z" fill="#ffc369" data-original="#FFC369" class="" data-old_color="#ffc369" style="fill:#EFB968"/><path d="m14.003 183.361h483.993c7.711 0 14.004 6.321 14.004 14.003v68.996c0 7.71-6.293 14.003-14.004 14.003h-55.984l-25.427-7.229-18.907 7.229h-297.075l-38.268-4.479-48.331 4.479c-7.711.001-14.004-6.292-14.004-14.002v-68.996c0-7.682 6.293-14.004 14.003-14.004z" fill="#ffe17d" data-original="#FFE17D" class="" data-old_color="#ffe17d" style="fill:#DBAC0E"/><path d="m468.005 183.361h29.991c7.711 0 14.004 6.321 14.004 14.003v68.996c0 7.71-6.293 14.003-14.004 14.003h-29.991c7.712 0 14.005-6.293 14.005-14.003v-68.996c0-7.681-6.293-14.003-14.005-14.003z" fill="#ffc369" data-original="#FFC369" class="" data-old_color="#ffc369" style="fill:#EFB968"/><path d="m497.996 50.868h-86.599l-55.985 97.003h86.6zm-341.38 0h-86.599l-56.014 97.003h86.599zm170.704 0h-86.627l-55.985 97.003h86.599z" fill="#e6646e" data-original="#E6646E" class="" style="fill:#FF0E21" data-old_color="#e6646e"/><path d="m497.996 183.361h-86.599l-55.985 97.003h86.6zm-341.38 0h-86.599l-56.014 97.003h86.599zm170.704 0h-86.627l-55.985 97.003h86.599z" fill="#e6646e" data-original="#E6646E" class="" style="fill:#FF0E21" data-old_color="#e6646e"/></g></g></g> </svg>
